<svg id="Layer_1" data-name="Layer 1" xmlns="http://www.w3.org/2000/svg" viewBox="0 0 230 107"><defs><style>.cls-1{fill:#fff;}</style></defs><title>logo</title><path class="cls-1" d="M0,44v63L230,62.94V0ZM138,30.21l-9.73,1.84V24.64ZM63.6,57.53l-7.36,1.33V81.31L46,83.23V60.79L27.1,64.34,14.26,56.87,63.6,47.67v9.87ZM92,74.6s-9.94,1.93-13.66,2.63-7,.34-9.44-1.62a10.7,10.7,0,0,1-4-8.6V47.36l10.24-1.92V65.09a2.67,2.67,0,0,0,1,2,3,3,0,0,0,2.37.51,4.05,4.05,0,0,0,3.24-3.79V44.34L92,42.41V74.6Zm34.94-6.54-5.3,1L103.47,58.47v14L93.41,74.33V39.59l22.92,13.53V37.51l10.62-2V68.06Zm1.29-.19,0-32.56,10.23-1.94V66Zm45.1-4.59L150.42,49.7v14L139.86,65.6V33.1l2.34-.45,20.52,11.94V28.8l10.62-2V63.28Zm31.13-10L192,55.66A14.34,14.34,0,0,1,179.92,53a13.24,13.24,0,0,1-5-10.92,19.39,19.39,0,0,1,5-12.81c3.33-3.9,7.11-5,11.79-5.91,0.61-.12,1.73-0.35,9-1.66L200,30.4c-7.45,1.49-7.39,1.6-8,1.77A9.53,9.53,0,0,0,187.16,35a7.63,7.63,0,0,0-2,5.13,5.25,5.25,0,0,0,2,4.37A5.64,5.64,0,0,0,192,45.61l1.06-.2,1-.2V37.94L216.93,51Z"/></svg>