<svg id="Layer_4" data-name="Layer 4" xmlns="http://www.w3.org/2000/svg" viewBox="0 0 618 191"><defs><style>.cls-1{fill:#6cf;}.cls-2{fill:#fff;}.cls-3{opacity:0.5;}.cls-4{fill:#d3d3d3;}</style></defs><title>sent</title><path class="cls-1" d="M324.73,27.66a30.09,30.09,0,1,0,30.09,30.09A30.09,30.09,0,0,0,324.73,27.66Zm2,40.58-5.25,5.25-0.33.33L303.34,56l5.2-5.2,11.89,11.89L342,41.11l5.95,5.95Z"/><polygon class="cls-2" points="467 153.93 467 91.48 533 41.39 599 91.48 599 154.47 467 153.93"/><path class="cls-1" d="M533.5,41.93L599,91.7V154l-131-.54V91.7l65.5-49.76m0-1.08L467,91.27v63.09l133,0.55V91.27L533.5,40.85h0Z"/><rect class="cls-2" x="473.69" y="57.03" width="118.87" height="100.07"/><path class="cls-1" d="M593,157.53H473.26V56.6H593V157.53Zm-118.87-.86h118V57.46h-118v99.2Z"/><g class="cls-3"><rect class="cls-4" x="487.08" y="88.23" width="93.03" height="4.96"/><rect class="cls-4" x="487.08" y="96.5" width="93.03" height="4.96"/><rect class="cls-4" x="487.08" y="104.77" width="93.03" height="4.96"/><rect class="cls-4" x="487.08" y="113.04" width="93.03" height="4.96"/></g><path class="cls-2" d="M472.6,162.57a5.2,5.2,0,0,1-5.2-5.2V92l65.73,35.63L599.39,92v65.38a5.2,5.2,0,0,1-5.2,5.2H472.6Z"/><path class="cls-1" d="M599,92.71v64.66a4.77,4.77,0,0,1-4.77,4.77H472.6a4.77,4.77,0,0,1-4.77-4.77V92.72l64.89,35.18,0.41,0.22,0.41-.22L599,92.71m0.86-1.44-66.69,35.87L467,91.27v66.1A5.63,5.63,0,0,0,472.6,163h121.6a5.63,5.63,0,0,0,5.63-5.63V91.27h0Z"/><path d="M517.17,72.18V81l31.92-6.14V66Zm19.15-1.93-1.35.26v-1ZM526,74.06l-1,.19v3.13l-1.42.27V74.52l-2.62.49-1.78-1L526,72.69v1.38Zm3.94,2.38-1.9.37a1.57,1.57,0,0,1-1.31-.23,1.5,1.5,0,0,1-.56-1.2V72.65l1.42-.27v2.74a0.37,0.37,0,0,0,.13.29,0.42,0.42,0,0,0,.33.07,0.56,0.56,0,0,0,.45-0.53V72.22l1.43-.27v4.49Zm4.85-.91-0.74.14-2.52-1.47v1.95l-1.4.27V71.56l3.18,1.89V71.27l1.47-.27v4.53Zm0.18,0V71l1.42-.27v4.54Zm6.26-.64L538,73v1.95l-1.47.27V70.66l0.33-.06,2.85,1.66v-2.2l1.47-.27v5.08Zm4.32-1.39-1.73.33a2,2,0,0,1-1.68-.37,1.85,1.85,0,0,1-.7-1.52,2.71,2.71,0,0,1,.7-1.79,2.52,2.52,0,0,1,1.64-.82l1.25-.23v1.21l-1.2.25a1.32,1.32,0,0,0-.67.4,1.07,1.07,0,0,0-.28.71,0.73,0.73,0,0,0,.28.61,0.78,0.78,0,0,0,.67.15l0.15,0,0.14,0v-1l3.18,1.83Z"/><rect class="cls-2" x="72.39" y="65.24" width="108.68" height="91.49" transform="translate(-36.52 69.41) rotate(-26.92)"/><path class="cls-1" d="M98.82,176.9L57,94.63l97.6-49.56,41.78,82.27ZM58.1,95l41.06,80.87L195.36,127,154.3,46.13Z"/><g class="cls-3"><rect class="cls-4" x="77.82" y="95.19" width="85.05" height="4.54" transform="translate(-31.08 65.05) rotate(-26.92)"/><rect class="cls-4" x="81.25" y="101.93" width="85.05" height="4.54" transform="translate(-33.77 67.33) rotate(-26.92)"/><rect class="cls-4" x="84.67" y="108.67" width="85.05" height="4.54" transform="translate(-36.45 69.61) rotate(-26.92)"/><rect class="cls-4" x="88.09" y="115.42" width="85.05" height="4.54" transform="translate(-39.13 71.89) rotate(-26.92)"/><rect class="cls-4" x="91.66" y="122.45" width="85.05" height="4.54" transform="translate(-41.93 74.27) rotate(-26.92)"/><rect class="cls-4" x="97.73" y="139.12" width="45.6" height="4.54" transform="translate(-50.95 69.89) rotate(-26.92)"/></g><path d="M99.28,89.16l3.63,7.15L126.4,78.09l-3.63-7.15Zm14.81-9.5-1,.77-0.43-.84ZM107.26,87l-0.76.57,1.3,2.55-1,.81-1.3-2.55-1.93,1.49-1.88-.11,5.05-3.88Zm4.2,0.31-1.39,1.08a1.44,1.44,0,0,1-1.16.36A1.37,1.37,0,0,1,108,88l-1.13-2.23,1-.81L109,87.23a0.34,0.34,0,0,0,.23.18,0.38,0.38,0,0,0,.3-0.08,0.52,0.52,0,0,0,.15-0.62l-1.13-2.22,1.05-.81ZM115,84.59l-0.54.41-2.67-.16,0.81,1.59-1,.8-2-3.95L113,83.51l-0.9-1.77,1.09-.83Zm0.14-.1-1.88-3.7,1-.81,1.88,3.7ZM120,81.38l-3.38-.23,0.81,1.59-1.08.83-1.88-3.69,0.24-.19,3,0.18-0.91-1.8,1.09-.83ZM123,78.46l-1.28,1a1.81,1.81,0,0,1-1.52.39,1.69,1.69,0,0,1-1.2-1,2.48,2.48,0,0,1-.17-1.74,2.3,2.3,0,0,1,1-1.35l0.93-.71,0.49,1-0.88.7a1.21,1.21,0,0,0-.38.6,1,1,0,0,0,.07.7,0.67,0.67,0,0,0,.48.38,0.71,0.71,0,0,0,.61-0.15l0.11-.08,0.1-.08-0.42-.83,3.35,0.17Z"/><rect class="cls-1" x="17.79" y="134.92" width="48.65" height="4.54" transform="translate(-57.55 33.94) rotate(-26.92)"/><rect class="cls-1" x="51.84" y="140.18" width="19.07" height="4.54" transform="translate(-57.84 43.23) rotate(-26.92)"/><rect class="cls-1" x="48.09" y="154.49" width="29.45" height="4.54" transform="translate(-64.17 45.43) rotate(-26.92)"/><path class="cls-1" d="M360.24,58.46l-0.21,0-1.48-.21a1.5,1.5,0,1,1,.4-3l1.5,0.21A1.5,1.5,0,0,1,360.24,58.46Z"/><path class="cls-1" d="M435.31,81.7a1.5,1.5,0,0,1-.67-0.16l-2.71-1.33a1.5,1.5,0,1,1,1.31-2.7L436,78.85A1.5,1.5,0,0,1,435.31,81.7Zm-11.9-5.59a1.5,1.5,0,0,1-.6-0.13L420,74.78A1.5,1.5,0,0,1,421.21,72l2.8,1.21A1.5,1.5,0,0,1,423.41,76.1Zm-12.18-5a1.49,1.49,0,0,1-.53-0.1l-2.84-1a1.5,1.5,0,1,1,1-2.82l2.87,1.05A1.5,1.5,0,0,1,411.23,71.13Zm-12.46-4.25a1.49,1.49,0,0,1-.44-0.07l-2.89-.87a1.5,1.5,0,0,1,.84-2.88l2.93,0.88A1.5,1.5,0,0,1,398.76,66.88Zm-12.68-3.5a1.51,1.51,0,0,1-.36,0l-2.93-.7a1.5,1.5,0,0,1,.68-2.92l3,0.71A1.5,1.5,0,0,1,386.08,63.38ZM373.22,60.6l-0.28,0L370,60a1.5,1.5,0,0,1,.52-3l3,0.55A1.5,1.5,0,0,1,373.22,60.6Z"/><path class="cls-1" d="M445.64,87.06a1.5,1.5,0,0,1-.71-0.18l-1.31-.71A1.5,1.5,0,1,1,445,83.53l1.32,0.71A1.5,1.5,0,0,1,445.64,87.06Z"/><polygon class="cls-1" points="440.44 90.75 454.5 90.45 447.21 78.43 440.44 90.75"/><path class="cls-1" d="M185.05,86.92a1.5,1.5,0,0,1-.75-2.8l1.32-.75A1.5,1.5,0,1,1,187.09,86l-1.29.73A1.49,1.49,0,0,1,185.05,86.92Z"/><path class="cls-1" d="M195.73,81.42a1.5,1.5,0,0,1-.63-2.86q1.44-.66,2.91-1.3a1.5,1.5,0,0,1,1.2,2.75q-1.44.63-2.85,1.28A1.49,1.49,0,0,1,195.73,81.42Zm12.64-5.23a1.5,1.5,0,0,1-.52-2.91l3-1.09a1.5,1.5,0,1,1,1,2.83l-2.95,1.07A1.5,1.5,0,0,1,208.37,76.19Zm12.95-4.39a1.5,1.5,0,0,1-.44-2.93l3-.92a1.5,1.5,0,0,1,.85,2.88l-3,.91A1.5,1.5,0,0,1,221.32,71.8Zm13.16-3.73a1.5,1.5,0,0,1-.38-3l3.08-.78a1.5,1.5,0,0,1,.73,2.91l-3,.78A1.5,1.5,0,0,1,234.47,68.07Zm13.31-3.17a1.5,1.5,0,0,1-.32-3l3.1-.66a1.5,1.5,0,1,1,.61,2.94l-3.07.66A1.5,1.5,0,0,1,247.78,64.9Zm13.42-2.67a1.5,1.5,0,0,1-.26-3l3.12-.55a1.5,1.5,0,0,1,.51,3l-3.1.54Zm13.5-2.18a1.5,1.5,0,0,1-.21-3l3.14-.43a1.5,1.5,0,1,1,.4,3l-3.11.43Z"/><path class="cls-1" d="M288.26,58.4a1.5,1.5,0,0,1-.15-3l1.5-.15a1.5,1.5,0,1,1,.28,3l-1.48.14h-0.15Z"/></svg>